<?xml version="1.0" encoding="UTF-8" standalone="no"?>
<!-- Created with Inkscape (http://www.inkscape.org/) -->

<svg
   xmlns:dc="http://purl.org/dc/elements/1.1/"
   xmlns:cc="http://creativecommons.org/ns#"
   xmlns:rdf="http://www.w3.org/1999/02/22-rdf-syntax-ns#"
   xmlns:svg="http://www.w3.org/2000/svg"
   xmlns="http://www.w3.org/2000/svg"
   xmlns:sodipodi="http://sodipodi.sourceforge.net/DTD/sodipodi-0.dtd"
   xmlns:inkscape="http://www.inkscape.org/namespaces/inkscape"
   width="210mm"
   height="297mm"
   viewBox="0 0 210 297"
   version="1.1"
   id="svg903"
   inkscape:version="0.92.4 (5da689c313, 2019-01-14)"
   sodipodi:docname="RESOURCE_LIQUID_SVG.svg">
  <defs
     id="defs897" />
  <sodipodi:namedview
     id="base"
     pagecolor="#ffffff"
     bordercolor="#666666"
     borderopacity="1.0"
     inkscape:pageopacity="0.0"
     inkscape:pageshadow="2"
     inkscape:zoom="90.509668"
     inkscape:cx="0.55865662"
     inkscape:cy="1122.5139"
     inkscape:document-units="mm"
     inkscape:current-layer="layer2"
     showgrid="false"
     inkscape:window-width="1600"
     inkscape:window-height="1137"
     inkscape:window-x="-8"
     inkscape:window-y="1072"
     inkscape:window-maximized="1" />
  <metadata
     id="metadata900">
    <rdf:RDF>
      <cc:Work
         rdf:about="">
        <dc:format>image/svg+xml</dc:format>
        <dc:type
           rdf:resource="http://purl.org/dc/dcmitype/StillImage" />
        <dc:title />
      </cc:Work>
    </rdf:RDF>
  </metadata>
  <g
     inkscape:label="Layer 1"
     inkscape:groupmode="layer"
     id="layer1" />
  <g
     inkscape:groupmode="layer"
     id="layer2"
     inkscape:label="Layer 2">
    <path
       style="fill:#fefefe;stroke:none;stroke-width:0.005;stroke-linecap:butt;stroke-linejoin:miter;stroke-opacity:1;stroke-miterlimit:4;stroke-dasharray:none;fill-opacity:1"
       d="m -0.28355626,-0.05734258 c 0.005846,-0.0628501 0.17247236,-0.34786798 0.29671093,-0.37417733 0.12423857,-0.0263094 0.29963418,0.039464 0.36102267,0.1213153 0.0613885,0.0818513 0.0584652,0.0847746 0.0643117,0.15347118 0.005847,0.06869662 -0.0131546,0.06138847 -0.0131546,0.10377574 0,0.04238728 0.0160779,0.0774664 -0.002923,0.11546879 -0.0190013,0.03800238 -0.0643117,0.06723499 -0.0818513,0.09939086 -0.0175395,0.0321559 -0.0263094,0.0833129 -0.0146164,0.10962226 0.011693,0.0263094 -0.002923,0.0540803 -0.0321559,0.0482338 -0.0292326,-0.005847 -0.023386,-0.0350792 -0.0102314,-0.0686966 0.0131545,-0.0336175 -0.002923,-0.067235 -0.0219245,-0.0482338 -0.0190012,0.0190012 -0.0467722,0.0482338 -0.0409256,0.0876978 0.005847,0.039464 0.0321559,0.0496954 0.0160779,0.0935443 -0.0160779,0.0438489 -0.0526187,0.0263094 -0.067235,0.007308 -0.0146162,-0.0190011 0.0277711,-0.11254544 -0.001462,-0.13446988 -0.0292326,-0.0219245 -0.0920827,-0.0292326 -0.0774664,0.0584652 0.0146163,0.0876978 0.03946402,0.0438489 0.0146163,0.12277695 -0.02484771,0.078928 -0.11693041,0.0526187 -0.12862345,-0.007308 -0.01169304,-0.0599268 0.04531053,-0.10523738 0.0058465,-0.1549328 -0.03946402,-0.0496954 -0.06138847,-0.0365408 -0.07600477,-0.0190012 -0.0146163,0.0175396 -0.0029233,0.0453105 0.0043849,0.0906211 0.0073082,0.0453105 -0.04969542,0.0599269 -0.08185129,0.0263094 -0.0321559,-0.0336175 0.005847,-0.0803896 0.004385,-0.12716183 -0.001462,-0.0467722 -0.0248477,-0.12277696 -0.0628501,-0.15054793 -0.0380024,-0.02777098 -0.0540803,-0.15347118 -0.0540802,-0.15347131 z"
       id="path829"
       inkscape:connector-curvature="0" />
    <path
       style="fill:#646568;stroke:none;stroke-width:0;stroke-linecap:butt;stroke-linejoin:miter;stroke-opacity:1;stroke-miterlimit:4;stroke-dasharray:none;fill-opacity:1"
       d="m -0.31936036,0.08789062 c -0.0733805,0.01136881 -0.0971517,0.03100586 -0.091984,0.08681641 0.005168,0.0558105 0.0341064,0.0702799 0.0682129,0.0682129 0.0341064,-0.002067 0.0289388,0 0.0454753,0.003101 0.0165365,0.003101 0.03514,-0.004134 0.0475423,-0.0444417 0.0124023,-0.0403076 0.004134,-0.03514 -0.002067,-0.0413412 -0.006201,-0.006201 -0.0103353,-0.009302 -0.0310059,-0.0434082 -0.0206706,-0.03410645 -0.0361735,-0.0289388 -0.0361736,-0.02893921 z"
       id="path831"
       inkscape:connector-curvature="0" />
    <path
       style="fill:#89898b;stroke:none;stroke-width:0;stroke-linecap:butt;stroke-linejoin:miter;stroke-miterlimit:4;stroke-dasharray:none;stroke-opacity:1;fill-opacity:1"
       d="m -0.29868979,-0.22940267 0.0320394,-0.0465088 0.0330729,-0.008268 c 0.003095,0.0134359 0.008994,0.0268717 -0.001033,0.0403076 -0.007599,0.012166 -0.015505,0.0242298 -0.0392741,0.0310059 -0.009225,-0.002642 -0.0206664,0.001364 -0.0248052,-0.0165367 z"
       id="path833"
       inkscape:connector-curvature="0"
       sodipodi:nodetypes="cccccc" />
  </g>
</svg>
