<?xml version="1.0" encoding="UTF-8" standalone="no"?>
<!-- Created with Inkscape (http://www.inkscape.org/) -->

<svg
   xmlns:dc="http://purl.org/dc/elements/1.1/"
   xmlns:cc="http://creativecommons.org/ns#"
   xmlns:rdf="http://www.w3.org/1999/02/22-rdf-syntax-ns#"
   xmlns:svg="http://www.w3.org/2000/svg"
   xmlns="http://www.w3.org/2000/svg"
   xmlns:sodipodi="http://sodipodi.sourceforge.net/DTD/sodipodi-0.dtd"
   xmlns:inkscape="http://www.inkscape.org/namespaces/inkscape"
   width="210mm"
   height="297mm"
   viewBox="0 0 210 297"
   version="1.1"
   id="svg903"
   inkscape:version="0.92.4 (5da689c313, 2019-01-14)"
   sodipodi:docname="RESOURCE_METAL_SVG.svg">
  <defs
     id="defs897" />
  <sodipodi:namedview
     id="base"
     pagecolor="#ffffff"
     bordercolor="#666666"
     borderopacity="1.0"
     inkscape:pageopacity="0.0"
     inkscape:pageshadow="2"
     inkscape:zoom="256"
     inkscape:cx="1.3419176"
     inkscape:cy="1121.9077"
     inkscape:document-units="mm"
     inkscape:current-layer="layer2"
     showgrid="false"
     inkscape:window-width="1600"
     inkscape:window-height="1137"
     inkscape:window-x="-8"
     inkscape:window-y="1072"
     inkscape:window-maximized="1"
     inkscape:snap-bbox="true"
     showguides="false" />
  <metadata
     id="metadata900">
    <rdf:RDF>
      <cc:Work
         rdf:about="">
        <dc:format>image/svg+xml</dc:format>
        <dc:type
           rdf:resource="http://purl.org/dc/dcmitype/StillImage" />
        <dc:title></dc:title>
      </cc:Work>
    </rdf:RDF>
  </metadata>
  <g
     inkscape:groupmode="layer"
     id="layer2"
     inkscape:label="Layer 2">
    <path
       style="fill:#2c2728;fill-opacity:1;stroke:#675045;stroke-width:0.024;stroke-linecap:butt;stroke-linejoin:miter;stroke-miterlimit:4;stroke-dasharray:none;stroke-opacity:1"
       d="m -0.28292632,-0.06800459 -5.676e-5,-0.03216 -0.0289979,-0.01236 -0.0221304,0.02304 -0.0451924,-0.04524 0.022811,-0.02268 -0.0125276,-0.02952 -0.0321576,1.68e-4 -3.0954e-4,-0.06384 0.0321574,-1.44e-4 0.0122434,-0.02904 -0.0230286,-0.02208 0.0455432,-0.04548 0.0225388,0.02292 0.029492,-0.01236 2.717e-5,-0.03216 h 0.063764 l 2.64e-5,0.03216 0.0289862,0.01236 0.022152,-0.02292 0.0451496,0.04536 -0.0228324,0.02256 0.0124998,0.02952"
       id="path5201-0"
       inkscape:connector-curvature="0"
       sodipodi:nodetypes="ccccccccccccccccccccccc" />
    <path
       style="fill:#3b2f30;fill-opacity:1;stroke:#95705c;stroke-width:0.036;stroke-linecap:butt;stroke-linejoin:miter;stroke-miterlimit:4;stroke-dasharray:none;stroke-opacity:1"
       d="m -0.20053747,-0.29668859 0.0534248,0.05436 0.0699072,-0.0294 6.387e-5,-0.0762 0.15362497,-0.001241 -0.0024176,0.0774402 0.06870816,0.0294 0.0525086,-0.05436 0.1070214,0.10752 -0.0541208,0.05364 0.0296292,0.06984 0.0762256,-6.72e-4 5.9741e-4,0.15115204 -0.0762252,3.84e-4 -0.0290851,0.06888 0.0545374,0.05232 -0.10748148,0.10716 -0.053476,-0.05424 -0.0698796,0.0294 7.63e-6,0.0762 -0.15114444,4.8e-5 -1.3455e-4,-0.0762 -0.06873576,-0.0294 -0.0524575,0.05448 -0.10712244,-0.1074 0.0540706,-0.05376 -0.029695,-0.06984 -0.0762254,3.72e-4 -7.371e-4,-0.15112804 0.0762247,-2.88e-4 0.0290213,-0.06888 -0.0545862,-0.0522 0.10795133,-0.1073872 0.0534248,0.05436"
       id="path5201"
       inkscape:connector-curvature="0"
       sodipodi:nodetypes="cccccccccccccccccccccccccccccccccc" />
    <path
       style="fill:#292526;fill-opacity:1;stroke:#685145;stroke-width:0.0156;stroke-linecap:butt;stroke-linejoin:miter;stroke-miterlimit:4;stroke-dasharray:none;stroke-opacity:1"
       d="m 0.35498232,0.12197945 0.009509,0.0096 0.0124424,-0.006 1.142e-5,-0.01356 h 0.026901 l 1.116e-5,0.01356 0.0122284,0.006 0.009346,-0.0096 0.0190468,0.0192 -0.009632,0.0096 0.005274,0.01248 0.0135666,-3.6e-5 1.053e-4,0.02688 -0.0135656,4.8e-5 -0.005174,0.01224 0.009707,0.0096 -0.0191286,0.01908 -0.009517,-0.0096 -0.0124372,0.006 1.44e-6,0.01356 h -0.026901 l -2.402e-5,-0.01356 -0.0122336,-0.006 -0.009337,0.0096 -0.0190656,-0.01908 0.009624,-0.0096 -0.005284,-0.01248 -0.0135656,2.4e-5 -1.3096e-4,-0.02688 0.0135666,-4.8e-5 0.005166,-0.01224 -0.009715,-0.0096 0.0192041,-0.019188 0.009509,0.0096"
       id="path5201-2"
       inkscape:connector-curvature="0"
       sodipodi:nodetypes="cccccccccccccccccccccccccccccccccc" />
  </g>
  <g
     inkscape:label="Layer 1"
     inkscape:groupmode="layer"
     id="layer1" />
</svg>
