<?xml version="1.0" encoding="UTF-8" standalone="no"?>
<svg
   xmlns:dc="http://purl.org/dc/elements/1.1/"
   xmlns:cc="http://creativecommons.org/ns#"
   xmlns:rdf="http://www.w3.org/1999/02/22-rdf-syntax-ns#"
   xmlns:svg="http://www.w3.org/2000/svg"
   xmlns="http://www.w3.org/2000/svg"
   xmlns:sodipodi="http://sodipodi.sourceforge.net/DTD/sodipodi-0.dtd"
   xmlns:inkscape="http://www.inkscape.org/namespaces/inkscape"
   sodipodi:docname="cat.svg"
   inkscape:version="1.0 (4035a4fb49, 2020-05-01)"
   id="svg8"
   version="1.1"
   viewBox="0 0 210 297"
   height="297mm"
   width="210mm">
  <defs
     id="defs2" />
  <sodipodi:namedview
     inkscape:window-maximized="1"
     inkscape:window-y="1072"
     inkscape:window-x="-8"
     inkscape:window-height="1377"
     inkscape:window-width="2560"
     showgrid="false"
     inkscape:document-rotation="0"
     inkscape:current-layer="layer1"
     inkscape:document-units="mm"
     inkscape:cy="-2.1934711"
     inkscape:cx="-5.5547043"
     inkscape:zoom="22.627417"
     inkscape:pageshadow="2"
     inkscape:pageopacity="0.0"
     borderopacity="1.0"
     bordercolor="#666666"
     pagecolor="#ffffff"
     id="base" />
  <metadata
     id="metadata5">
    <rdf:RDF>
      <cc:Work
         rdf:about="">
        <dc:format>image/svg+xml</dc:format>
        <dc:type
           rdf:resource="http://purl.org/dc/dcmitype/StillImage" />
        <dc:title></dc:title>
      </cc:Work>
    </rdf:RDF>
  </metadata>
  <g
     inkscape:label="Layer 2"
     id="layer2"
     inkscape:groupmode="layer">
    <path
       id="path857"
       d="m -2.4986632,-0.97959116 c 0,-0.0642382 0.9212769,-3.24401784 2.09089785,-1.01977784"
       style="fill:#62d0e3;fill-opacity:1;stroke:#000000;stroke-width:0.0449142px;stroke-linecap:butt;stroke-linejoin:miter;stroke-opacity:1" />
    <path
       id="path859"
       d="m 2.6845206,-0.8752045 c 0,0 -0.6488996,-3.6455051 -1.9466981,-1.0759859"
       style="fill:#62d0e3;fill-opacity:1;stroke:#000000;stroke-width:0.0449142px;stroke-linecap:butt;stroke-linejoin:miter;stroke-opacity:1" />
  </g>
  <g
     id="layer1"
     inkscape:groupmode="layer"
     inkscape:label="Layer 1">
    <path
       id="path855"
       d="m -1.9458971,2.0797427 c 0,0 -1.0414433,-0.2168032 -1.0414433,-1.62200914 0,-1.40520578 1.1936543,-2.48922156 3.0922857,-2.44907286 1.8986315,0.04015 2.5635531,1.00371838 2.7638305,1.45338413 0.2002777,0.44966603 0.632877,2.01546677 -0.7370214,2.61769787 -1.3698986,0.6022313 -4.0776515,0 -4.0776515,0 z"
       style="fill:#62d0e3;fill-opacity:1;stroke:#000000;stroke-width:0.0449142px;stroke-linecap:butt;stroke-linejoin:miter;stroke-opacity:1" />
    <path
       id="path861"
       d="m -0.61605396,-0.57810385 c 0,0 -0.15221105,1.02780767 0.67293266,0.99568869 0.8251435,-0.0321191 0.696966,-0.97159952 0.696966,-0.97159952"
       style="fill:#9d7881;fill-opacity:1;stroke:#000000;stroke-width:0.0449142px;stroke-linecap:butt;stroke-linejoin:miter;stroke-opacity:1" />
    <path
       id="path863"
       d="m -0.7442317,-0.73066896 c 0,0 0.38453313,0.57011194 0.7610549,0"
       style="fill:#62d0e3;fill-opacity:1;stroke:#000000;stroke-width:0.0449142px;stroke-linecap:butt;stroke-linejoin:miter;stroke-opacity:1" />
    <path
       id="path865"
       d="m 0.8900333,-0.73468389 c 0,0 -0.3444773,0.64237973 -0.8732101,0.004014"
       style="fill:#62d0e3;fill-opacity:1;stroke:#000000;stroke-width:0.0449142px;stroke-linecap:butt;stroke-linejoin:miter;stroke-opacity:1" />
    <path
       id="path867"
       d="m -3.5641399,1.1964706 c 0,0 -0.064089,0.5058737 0.6729327,0.4978443 0,0 -0.5767994,0.072268 -0.6088438,0.6102607"
       style="fill:none;stroke:#000000;stroke-width:0.0449142px;stroke-linecap:butt;stroke-linejoin:miter;stroke-opacity:1" />
    <path
       id="path869"
       d="m -3.500051,2.3045756 c 0.016022,-0.6022313 -0.7690659,-0.5620824 -0.7690659,-0.5620824 0,0 0.6889548,0.056208 0.704977,-0.5460226"
       style="fill:none;stroke:#000000;stroke-width:0.0449142px;stroke-linecap:butt;stroke-linejoin:miter;stroke-opacity:1" />
    <path
       id="path871"
       d="m -2.642863,-3.203831 c 0,0 0.3284552,0.032119 0.3284552,-0.3533089"
       style="fill:none;stroke:#000000;stroke-width:0.0449142px;stroke-linecap:butt;stroke-linejoin:miter;stroke-opacity:1" />
    <path
       id="path873"
       d="m -1.9779415,-3.2600393 c 0,0 -0.312433,0.088327 -0.3364663,-0.2971006"
       style="fill:none;stroke:#000000;stroke-width:0.0449142px;stroke-linecap:butt;stroke-linejoin:miter;stroke-opacity:1" />
    <path
       id="path875"
       d="m -1.9779415,-3.2600393 c -0.3524885,0.04015 -0.312433,0.4576957 -0.312433,0.4576957 0,0 0.00801,-0.4014874 -0.3524885,-0.4014874"
       style="fill:none;stroke:#000000;stroke-width:0.0449142px;stroke-linecap:butt;stroke-linejoin:miter;stroke-opacity:1" />
    <path
       id="path877"
       d="m 2.8928093,-1.0518589 c 0,0 0.5367437,-0.016059 0.5207216,0.55405252"
       style="fill:none;stroke:#000000;stroke-width:0.0449142px;stroke-linecap:butt;stroke-linejoin:miter;stroke-opacity:1" />
    <path
       id="path879"
       d="m 3.8381192,-1.1000373 c 0,0 -0.4085662,0.1124162 -0.4245883,0.60223092"
       style="fill:none;stroke:#000000;stroke-width:0.0449142px;stroke-linecap:butt;stroke-linejoin:miter;stroke-opacity:1" />
    <path
       id="path881"
       d="m 3.3814863,-1.5978817 c 0,0 -0.080111,0.4898147 0.4566329,0.4978444"
       style="fill:none;stroke:#000000;stroke-width:0.0449142px;stroke-linecap:butt;stroke-linejoin:miter;stroke-opacity:1" />
    <path
       id="path883"
       d="m 2.8928093,-1.0518589 c 0,0 0.5207211,0.048178 0.488677,-0.5460228"
       style="fill:none;stroke:#000000;stroke-width:0.0449142px;stroke-linecap:butt;stroke-linejoin:miter;stroke-opacity:1" />
    <path
       id="path885"
       d="m -1.9431742,1.9301909 c 0,0 0.2719058,1.2264242 0.6287823,0.1334304"
       style="fill:#62d0e3;fill-opacity:1;stroke:#000000;stroke-width:0.0449142px;stroke-linecap:butt;stroke-linejoin:miter;stroke-opacity:1" />
    <path
       id="path887"
       d="m 1.4896372,1.9926479 c 0,0 0.218091,0.9936302 0.5919616,-0.1305914"
       style="fill:#62d0e3;fill-opacity:1;stroke:#000000;stroke-width:0.0449142px;stroke-linecap:butt;stroke-linejoin:miter;stroke-opacity:1" />
    <path
       id="path889"
       d="m -1.6815307,-1.0839778 c 0,0 -0.4245884,0 -0.5207217,0.52996312 -0.096133,0.52996344 0.2643664,0.46572554 0.2643664,0.46572554 0,0 0.2403331,0.04817832 0.4165774,-0.33724943 0.1762442,-0.38542796 0.048067,-0.67449873 -0.1602221,-0.65843923 z"
       style="fill:#3f444a;fill-opacity:1;stroke:#000000;stroke-width:0.0449142px;stroke-linecap:butt;stroke-linejoin:miter;stroke-opacity:1" />
    <path
       id="path891"
       d="m 1.643077,-1.1241266 c 0,0 0.2803884,-0.128476 0.4806663,0.25695186 0.2002772,0.38542797 0.032044,0.54602285 0.032044,0.54602285 0,0 -0.1842553,0.27301142 -0.472655,-0.0481783 C 1.3947331,-0.69052008 1.5068885,-1.0598884 1.643077,-1.1241266 Z"
       style="fill:#3f444a;fill-opacity:1;stroke:#000000;stroke-width:0.0449142px;stroke-linecap:butt;stroke-linejoin:miter;stroke-opacity:1" />
    <path
       sodipodi:nodetypes="cc"
       id="path912"
       d="m -1.3291788,2.17521 c 0,0 1.31701091,-1.0422768 2.8820685,0.074251 L 0.93252009,2.3154767 0.09354434,2.3073094 -0.60219165,2.2691954 -1.324237,2.1848 Z"
       style="fill:#ffffff;fill-opacity:1;stroke:none;stroke-width:0.0965039;stroke-linecap:butt;stroke-linejoin:miter;stroke-miterlimit:4;stroke-dasharray:none;stroke-opacity:1" />
  </g>
</svg>
